<svg viewBox="321 255.8499 502.264 144.3501" width="5000" height="1436.9942898555341" xmlns="http://www.w3.org/2000/svg" xmlns:xlink="http://www.w3.org/1999/xlink" preserveAspectRatio="none"><defs></defs><style>.a6izo4zJpcolor {fill:#000000;fill-opacity:1;}.a6izo4zJpstrokeColor-str {stroke:#3F3F3F;stroke-opacity:1;}.aD6z1nYkhcolor {fill:#000000;fill-opacity:1;}.aD6z1nYkhstrokeColor-str {stroke:#3F3F3F;stroke-opacity:1;}.aEiCqXr4GfillColor {fill:#000000;fill-opacity:1;}.aEiCqXr4GstrokeColor-str {stroke:#3F3F3F;stroke-opacity:1;}.aSSkJ0dnWDcolors-0 {fill:#000000;fill-opacity:1;}.aSSkJ0dnWDcolors-1 {fill:#3F3F3F;fill-opacity:1;}</style><g opacity="1" transform="rotate(0 483 256)">
<svg width="2.2" height="144.2" x="483" y="256" version="1.1" preserveAspectRatio="none" viewBox="0 0 2.2 144.2">
  <rect x="0" y="0" width="2.2" height="144.2" class="aEiCqXr4GfillColor aEiCqXr4GstrokeColor-str" style="stroke-width:0;" rx="0%" ry="0%" />
</svg>
</g><g opacity="1" transform="rotate(0 512 371.4568)">
<svg width="230.13" height="18" x="512" y="371.4568" version="1.1" preserveAspectRatio="none" viewBox="3.76 -30.88 497.6 38.92">
  <g transform="matrix(1 0 0 1 0 0)" class="a6izo4zJpcolor"><path id="id-6izo4zJp17" d="M15.28-28Q18.92-28 21.62-26.80Q24.32-25.60 25.76-23.36Q27.20-21.12 27.20-18.04L27.20-18.04Q27.20-15 25.76-12.74Q24.32-10.48 21.62-9.28Q18.92-8.08 15.28-8.08L15.28-8.08L8.96-8.08L8.96 0L3.76 0L3.76-28L15.28-28ZM15.04-12.48Q18.44-12.48 20.20-13.92Q21.96-15.36 21.96-18.04L21.96-18.04Q21.96-20.72 20.20-22.16Q18.44-23.60 15.04-23.60L15.04-23.60L8.96-23.60L8.96-12.48L15.04-12.48Z M45.28-18.24Q47.44-21.60 52.88-21.60L52.88-21.60L52.88-16.84Q52.24-16.96 51.72-16.96L51.72-16.96Q48.80-16.96 47.16-15.26Q45.52-13.56 45.52-10.36L45.52-10.36L45.52 0L40.52 0L40.52-21.36L45.28-21.36L45.28-18.24Z M75.32 0.28Q72.08 0.28 69.48-1.12Q66.88-2.52 65.42-5.02Q63.96-7.52 63.96-10.68L63.96-10.68Q63.96-13.84 65.42-16.32Q66.88-18.80 69.48-20.20Q72.08-21.60 75.32-21.60L75.32-21.60Q78.60-21.60 81.20-20.20Q83.80-18.80 85.26-16.32Q86.72-13.84 86.72-10.68L86.72-10.68Q86.72-7.52 85.26-5.02Q83.80-2.52 81.20-1.12Q78.60 0.28 75.32 0.28L75.32 0.28ZM75.32-4Q78.08-4 79.88-5.84Q81.68-7.68 81.68-10.68L81.68-10.68Q81.68-13.68 79.88-15.52Q78.08-17.36 75.32-17.36L75.32-17.36Q72.56-17.36 70.78-15.52Q69-13.68 69-10.68L69-10.68Q69-7.68 70.78-5.84Q72.56-4 75.32-4L75.32-4Z M112.16-21.60Q115.28-21.60 117.74-20.24Q120.20-18.88 121.60-16.40Q123-13.92 123-10.68L123-10.68Q123-7.44 121.60-4.94Q120.20-2.44 117.74-1.08Q115.28 0.28 112.16 0.28L112.16 0.28Q107.84 0.28 105.32-2.60L105.32-2.60L105.32 7.76L100.32 7.76L100.32-21.36L105.08-21.36L105.08-18.56Q106.32-20.08 108.14-20.84Q109.96-21.60 112.16-21.60L112.16-21.60ZM111.60-4Q114.36-4 116.14-5.84Q117.92-7.68 117.92-10.68L117.92-10.68Q117.92-13.68 116.14-15.52Q114.36-17.36 111.60-17.36L111.60-17.36Q109.80-17.36 108.36-16.54Q106.92-15.72 106.08-14.20Q105.24-12.68 105.24-10.68L105.24-10.68Q105.24-8.68 106.08-7.16Q106.92-5.64 108.36-4.82Q109.80-4 111.60-4L111.60-4Z M156.64-10.56Q156.64-10.04 156.56-9.08L156.56-9.08L139.80-9.08Q140.24-6.72 142.10-5.34Q143.96-3.96 146.72-3.96L146.72-3.96Q150.24-3.96 152.52-6.28L152.52-6.28L155.20-3.20Q153.76-1.48 151.56-0.60Q149.36 0.28 146.60 0.28L146.60 0.28Q143.08 0.28 140.40-1.12Q137.72-2.52 136.26-5.02Q134.80-7.52 134.80-10.68L134.80-10.68Q134.80-13.80 136.22-16.30Q137.64-18.80 140.16-20.20Q142.68-21.60 145.84-21.60L145.84-21.60Q148.96-21.60 151.42-20.22Q153.88-18.84 155.26-16.34Q156.64-13.84 156.64-10.56L156.64-10.56ZM145.84-17.60Q143.44-17.60 141.78-16.18Q140.12-14.76 139.76-12.40L139.76-12.40L151.88-12.40Q151.56-14.72 149.92-16.16Q148.28-17.60 145.84-17.60L145.84-17.60Z M175-18.24Q177.16-21.60 182.60-21.60L182.60-21.60L182.60-16.84Q181.96-16.96 181.44-16.96L181.44-16.96Q178.52-16.96 176.88-15.26Q175.24-13.56 175.24-10.36L175.24-10.36L175.24 0L170.24 0L170.24-21.36L175-21.36L175-18.24Z M207.88-4.72L209.28-1.16Q208.40-0.44 207.14-0.08Q205.88 0.28 204.48 0.28L204.48 0.28Q200.96 0.28 199.04-1.56Q197.12-3.40 197.12-6.92L197.12-6.92L197.12-17.20L193.60-17.20L193.60-21.20L197.12-21.20L197.12-26.08L202.12-26.08L202.12-21.20L207.84-21.20L207.84-17.20L202.12-17.20L202.12-7.04Q202.12-5.48 202.88-4.66Q203.64-3.84 205.08-3.84L205.08-3.84Q206.76-3.84 207.88-4.72L207.88-4.72Z M237.00-21.36L241.80-21.36L231.80 1.72Q230.40 5.20 228.40 6.62Q226.40 8.04 223.56 8.04L223.56 8.04Q221.96 8.04 220.40 7.52Q218.84 7 217.84 6.08L217.84 6.08L219.84 2.40Q220.56 3.08 221.54 3.48Q222.52 3.88 223.52 3.88L223.52 3.88Q224.84 3.88 225.70 3.20Q226.56 2.52 227.28 0.92L227.28 0.92L227.64 0.08L218.32-21.36L223.52-21.36L230.24-5.56L237.00-21.36Z M282.72 0.40Q279.48 0.40 276.46-0.52Q273.44-1.44 271.68-2.96L271.68-2.96L273.48-7Q275.20-5.64 277.70-4.78Q280.20-3.92 282.72-3.92L282.72-3.92Q285.84-3.92 287.38-4.92Q288.92-5.92 288.92-7.56L288.92-7.56Q288.92-8.76 288.06-9.54Q287.20-10.32 285.88-10.76Q284.56-11.20 282.28-11.76L282.28-11.76Q279.08-12.52 277.10-13.28Q275.12-14.04 273.70-15.66Q272.28-17.28 272.28-20.04L272.28-20.04Q272.28-22.36 273.54-24.26Q274.80-26.16 277.34-27.28Q279.88-28.40 283.56-28.40L283.56-28.40Q286.12-28.40 288.60-27.76Q291.08-27.12 292.88-25.92L292.88-25.92L291.24-21.88Q289.40-22.96 287.40-23.52Q285.40-24.08 283.52-24.08L283.52-24.08Q280.44-24.08 278.94-23.04Q277.44-22 277.44-20.28L277.44-20.28Q277.44-19.08 278.30-18.32Q279.16-17.56 280.48-17.12Q281.80-16.68 284.08-16.12L284.08-16.12Q287.20-15.40 289.20-14.62Q291.20-13.84 292.62-12.24Q294.04-10.64 294.04-7.92L294.04-7.92Q294.04-5.60 292.78-3.72Q291.52-1.84 288.96-0.72Q286.40 0.40 282.72 0.40L282.72 0.40Z M327.60-10.56Q327.60-10.04 327.52-9.08L327.52-9.08L310.76-9.08Q311.20-6.72 313.06-5.34Q314.92-3.96 317.68-3.96L317.68-3.96Q321.20-3.96 323.48-6.28L323.48-6.28L326.16-3.20Q324.72-1.48 322.52-0.60Q320.32 0.28 317.56 0.28L317.56 0.28Q314.04 0.28 311.36-1.12Q308.68-2.52 307.22-5.02Q305.76-7.52 305.76-10.68L305.76-10.68Q305.76-13.80 307.18-16.30Q308.60-18.80 311.12-20.20Q313.64-21.60 316.80-21.60L316.80-21.60Q319.92-21.60 322.38-20.22Q324.84-18.84 326.22-16.34Q327.60-13.84 327.60-10.56L327.60-10.56ZM316.80-17.60Q314.40-17.60 312.74-16.18Q311.08-14.76 310.72-12.40L310.72-12.40L322.84-12.40Q322.52-14.72 320.88-16.16Q319.24-17.60 316.80-17.60L316.80-17.60Z M345.96-18.24Q348.12-21.60 353.56-21.60L353.56-21.60L353.56-16.84Q352.92-16.96 352.40-16.96L352.40-16.96Q349.48-16.96 347.84-15.26Q346.20-13.56 346.20-10.36L346.20-10.36L346.20 0L341.20 0L341.20-21.36L345.96-21.36L345.96-18.24Z M382.60-21.36L387.40-21.36L378.24 0L373.08 0L363.92-21.36L369.12-21.36L375.76-5.52L382.60-21.36Z M399.32 0L399.32-21.36L404.32-21.36L404.32 0L399.32 0ZM401.84-24.88Q400.48-24.88 399.56-25.74Q398.64-26.60 398.64-27.88L398.64-27.88Q398.64-29.16 399.56-30.02Q400.48-30.88 401.84-30.88L401.84-30.88Q403.20-30.88 404.12-30.06Q405.04-29.24 405.04-28L405.04-28Q405.04-26.68 404.14-25.78Q403.24-24.88 401.84-24.88L401.84-24.88Z M429.48 0.28Q426.16 0.28 423.52-1.12Q420.88-2.52 419.40-5.02Q417.92-7.52 417.92-10.68L417.92-10.68Q417.92-13.84 419.40-16.32Q420.88-18.80 423.50-20.20Q426.12-21.60 429.48-21.60L429.48-21.60Q432.64-21.60 435.02-20.32Q437.40-19.04 438.60-16.64L438.60-16.64L434.76-14.40Q433.84-15.88 432.46-16.62Q431.08-17.36 429.44-17.36L429.44-17.36Q426.64-17.36 424.80-15.54Q422.96-13.72 422.96-10.68L422.96-10.68Q422.96-7.64 424.78-5.82Q426.60-4 429.44-4L429.44-4Q431.08-4 432.46-4.74Q433.84-5.48 434.76-6.96L434.76-6.96L438.60-4.72Q437.36-2.32 434.98-1.02Q432.60 0.28 429.48 0.28L429.48 0.28Z M471.48-10.56Q471.48-10.04 471.40-9.08L471.40-9.08L454.64-9.08Q455.08-6.72 456.94-5.34Q458.80-3.96 461.56-3.96L461.56-3.96Q465.08-3.96 467.36-6.28L467.36-6.28L470.04-3.20Q468.60-1.48 466.40-0.60Q464.20 0.28 461.44 0.28L461.44 0.28Q457.92 0.28 455.24-1.12Q452.56-2.52 451.10-5.02Q449.64-7.52 449.64-10.68L449.64-10.68Q449.64-13.80 451.06-16.30Q452.48-18.80 455.00-20.20Q457.52-21.60 460.68-21.60L460.68-21.60Q463.80-21.60 466.26-20.22Q468.72-18.84 470.10-16.34Q471.48-13.84 471.48-10.56L471.48-10.56ZM460.68-17.60Q458.28-17.60 456.62-16.18Q454.96-14.76 454.60-12.40L454.60-12.40L466.72-12.40Q466.40-14.72 464.76-16.16Q463.12-17.60 460.68-17.60L460.68-17.60Z M491.68 0.28Q489.08 0.28 486.60-0.40Q484.12-1.08 482.64-2.12L482.64-2.12L484.56-5.92Q486.00-4.96 488.02-4.38Q490.04-3.80 492.00-3.80L492.00-3.80Q496.48-3.80 496.48-6.16L496.48-6.16Q496.48-7.28 495.34-7.72Q494.20-8.16 491.68-8.56L491.68-8.56Q489.04-8.96 487.38-9.48Q485.72-10 484.50-11.30Q483.28-12.60 483.28-14.92L483.28-14.92Q483.28-17.96 485.82-19.78Q488.36-21.60 492.68-21.60L492.68-21.60Q494.88-21.60 497.08-21.10Q499.28-20.60 500.68-19.76L500.68-19.76L498.76-15.96Q496.04-17.56 492.64-17.56L492.64-17.56Q490.44-17.56 489.30-16.90Q488.16-16.24 488.16-15.16L488.16-15.16Q488.16-13.96 489.38-13.46Q490.60-12.96 493.16-12.52L493.16-12.52Q495.72-12.12 497.36-11.60Q499.00-11.08 500.18-9.84Q501.36-8.60 501.36-6.32L501.36-6.32Q501.36-3.32 498.76-1.52Q496.16 0.28 491.68 0.28L491.68 0.28Z"/></g>
</svg>
</g><g opacity="1" transform="rotate(0 512 267)">
<svg width="311.264" height="90" x="512" y="267" version="1.1" preserveAspectRatio="none" viewBox="1.36 -28.32 99.88 28.88">
  <g transform="matrix(1 0 0 1 0 0)" class="aD6z1nYkhcolor"><path id="id-D6z1nYkh4" d="M27.92-2.24L28.48-1.76Q27.40-0.52 26.16 0.02Q24.92 0.56 23.16 0.56L23.16 0.56Q20.84 0.56 19.50-0.42Q18.16-1.40 17.76-3.76L17.76-3.76L17.04-7.76Q16.52-10.68 15.78-12.06Q15.04-13.44 13.32-13.44L13.32-13.44L10.72-13.44L10.72-4.24Q10.72-2.72 10.94-2.04Q11.16-1.36 11.76-1.12Q12.36-0.88 13.72-0.80L13.72-0.80L13.72 0Q11.56-0.12 7.68-0.12L7.68-0.12Q3.40-0.12 1.36 0L1.36 0L1.36-0.80Q2.68-0.88 3.30-1.12Q3.92-1.36 4.14-2.04Q4.36-2.72 4.36-4.24L4.36-4.24L4.36-24.08Q4.36-25.60 4.14-26.28Q3.92-26.96 3.30-27.20Q2.68-27.44 1.36-27.52L1.36-27.52L1.36-28.32Q3.40-28.20 7.44-28.20L7.44-28.20L11.88-28.24Q12.68-28.28 13.72-28.28L13.72-28.28Q19.24-28.28 22.02-26.48Q24.80-24.68 24.80-21.32L24.80-21.32Q24.80-18.48 22.72-16.32Q20.64-14.16 15.84-13.60L15.84-13.60Q19.44-13.28 21.20-12.04Q22.96-10.80 23.48-8.32L23.48-8.32L24.40-4.20Q24.72-2.60 25.14-1.96Q25.56-1.32 26.32-1.32L26.32-1.32Q26.80-1.36 27.14-1.56Q27.48-1.76 27.92-2.24L27.92-2.24ZM13.20-27.52Q12.12-27.52 11.62-27.24Q11.12-26.96 10.92-26.24Q10.72-25.52 10.72-24.08L10.72-24.08L10.72-14.24L12.44-14.24Q15.72-14.24 16.94-15.98Q18.16-17.72 18.16-20.88L18.16-20.88Q18.16-24.16 17-25.84Q15.84-27.52 13.20-27.52L13.20-27.52Z M49.92-5.20Q49.92-2.92 50.20 0L50.20 0Q47.60-0.12 41.44-0.12L41.44-0.12Q33.20-0.12 29.04 0L29.04 0L29.04-0.80Q30.40-0.88 31-1.12Q31.60-1.36 31.82-2.04Q32.04-2.72 32.04-4.24L32.04-4.24L32.04-20.08Q32.04-21.60 31.82-22.28Q31.60-22.96 30.98-23.20Q30.36-23.44 29.04-23.52L29.04-23.52L29.04-24.32Q33.20-24.20 41.44-24.20L41.44-24.20Q47.04-24.20 49.40-24.32L49.40-24.32Q49.12-21.64 49.12-19.52L49.12-19.52Q49.12-17.96 49.24-17.04L49.24-17.04L48.32-17.04Q47.72-20.48 46.24-21.94Q44.76-23.40 42.16-23.40L42.16-23.40L40.68-23.40Q39.64-23.40 39.12-23.22Q38.60-23.04 38.38-22.50Q38.16-21.96 38.16-20.80L38.16-20.80L38.16-12.64L40.04-12.64Q41.88-12.64 42.82-13.94Q43.76-15.24 44.08-16.96L44.08-16.96L45-16.96Q44.88-15.60 44.88-13.84L44.88-13.84L44.88-12.24Q44.88-10.44 45.12-7.52L45.12-7.52L44.20-7.52Q43.92-9.40 42.94-10.62Q41.96-11.84 40.04-11.84L40.04-11.84L38.16-11.84L38.16-3.52Q38.16-2.36 38.38-1.82Q38.60-1.28 39.12-1.10Q39.64-0.92 40.68-0.92L40.68-0.92L42.40-0.92Q45.24-0.92 46.86-2.56Q48.48-4.20 49.12-8.08L49.12-8.08L50.04-8.08Q49.92-6.96 49.92-5.20L49.92-5.20Z M74.28-5.20Q74.28-2.92 74.56 0L74.56 0Q71.96-0.12 65.80-0.12L65.80-0.12Q57.56-0.12 53.40 0L53.40 0L53.40-0.80Q54.76-0.88 55.36-1.12Q55.96-1.36 56.18-2.04Q56.40-2.72 56.40-4.24L56.40-4.24L56.40-20.08Q56.40-21.60 56.18-22.28Q55.96-22.96 55.34-23.20Q54.72-23.44 53.40-23.52L53.40-23.52L53.40-24.32Q57.56-24.20 65.80-24.20L65.80-24.20Q71.40-24.20 73.76-24.32L73.76-24.32Q73.48-21.64 73.48-19.52L73.48-19.52Q73.48-17.96 73.60-17.04L73.60-17.04L72.68-17.04Q72.08-20.48 70.60-21.94Q69.12-23.40 66.52-23.40L66.52-23.40L65.04-23.40Q64-23.40 63.48-23.22Q62.96-23.04 62.74-22.50Q62.52-21.96 62.52-20.80L62.52-20.80L62.52-12.64L64.40-12.64Q66.24-12.64 67.18-13.94Q68.12-15.24 68.44-16.96L68.44-16.96L69.36-16.96Q69.24-15.60 69.24-13.84L69.24-13.84L69.24-12.24Q69.24-10.44 69.48-7.52L69.48-7.52L68.56-7.52Q68.28-9.40 67.30-10.62Q66.32-11.84 64.40-11.84L64.40-11.84L62.52-11.84L62.52-3.52Q62.52-2.36 62.74-1.82Q62.96-1.28 63.48-1.10Q64-0.92 65.04-0.92L65.04-0.92L66.76-0.92Q69.60-0.92 71.22-2.56Q72.84-4.20 73.48-8.08L73.48-8.08L74.40-8.08Q74.28-6.96 74.28-5.20L74.28-5.20Z M101.24-24.32Q100.96-21.28 100.96-18.88L100.96-18.88Q100.96-16.64 101.08-15.36L101.08-15.36L100.16-15.36Q99.60-18.40 98.82-20.12Q98.04-21.84 96.82-22.62Q95.60-23.40 93.68-23.40L93.68-23.40L92.44-23.40L92.44-4.64Q92.44-2.96 92.76-2.20Q93.08-1.44 93.88-1.16Q94.68-0.88 96.48-0.80L96.48-0.80L96.48 0Q94.32-0.12 89.28-0.12L89.28-0.12Q84.20-0.12 82.28 0L82.28 0L82.28-0.80Q84.08-0.88 84.88-1.16Q85.68-1.44 86-2.20Q86.32-2.96 86.32-4.64L86.32-4.64L86.32-23.40L85.08-23.40Q83.16-23.40 81.94-22.62Q80.72-21.84 79.94-20.12Q79.16-18.40 78.60-15.36L78.60-15.36L77.68-15.36Q77.80-16.64 77.80-18.88L77.80-18.88Q77.80-21.28 77.52-24.32L77.52-24.32Q81-24.20 89.28-24.20L89.28-24.20Q97.72-24.20 101.24-24.32L101.24-24.32Z"/></g>
</svg>
</g><g opacity="1" transform="rotate(0 321 255.8499)">
<svg width="128.6146" height="143.9002" x="321" y="255.8499" version="1.1" preserveAspectRatio="none" viewBox="28.5 20 143 160">
  <g transform="matrix(1 0 0 1 0 0)" ><g><path d="M42.9 84.5l7.2 6.7 48.5-34.8 52.5 35.4 5.2-7.9L98.5 45 42.9 84.5z" data-color="1" class="aSSkJ0dnWDcolors-0"></path><path d="M99.3 70.9L58.9 99.5l8.9 5 31.6-22.3 30.9 21.4 8.1-6-38.6-26.4-.5-.3z" data-color="1" class="aSSkJ0dnWDcolors-0"></path><path d="M99.6 20.3l-.5-.3-70.6 47.4 9.2 6.4L99 31.3l63.6 43.4.5.3 8.4-5.8-71.9-48.9z" data-color="1" class="aSSkJ0dnWDcolors-0"></path><path d="M28.5 120.1v11.6L99 180l37-23.8V145l-36.9 23.7-70.6-48.6z" data-color="2" class="aSSkJ0dnWDcolors-1"></path><path d="M28.5 93.9v11.6L99 153.8l59.7-39.7v-11.3l-59.5 39.7c-.1 0-70.7-48.6-70.7-48.6z" data-color="2" class="aSSkJ0dnWDcolors-1"></path><path d="M99.1 115.8L28.5 67.3v11.5l70 48 .5.3 72.4-46.4V69.1l-72.3 46.7z" data-color="2" class="aSSkJ0dnWDcolors-1"></path></g></g>
</svg>
</g></svg>